<svg width="1024" height="1050" viewBox="0 0 1024 1050" fill="none" xmlns="http://www.w3.org/2000/svg">
<g filter="url(#filter0_d_1_71)">
<circle cx="500.592" cy="499.257" r="467.219" fill="#252525"/>
<g filter="url(#filter1_i_1_71)">
<path d="M996.921 554.967C969.06 805.057 756.955 999.516 499.431 999.516C241.8 999.516 29.6238 804.876 1.90446 554.636C0.629381 543.125 9.82903 533.301 21.4104 533.305L977.429 533.624C989.01 533.628 998.203 543.457 996.921 554.967Z" fill="#F8F8F8"/>
</g>
<path d="M499.431 989.516C751.803 989.516 959.68 798.943 986.982 553.86C987.573 548.552 983.331 543.626 977.426 543.624L21.407 543.305C15.502 543.303 11.2556 548.226 11.8437 553.535C39.0082 798.766 246.954 989.516 499.431 989.516Z" stroke="#252525" stroke-width="20"/>
<g filter="url(#filter2_i_1_71)">
<path d="M998.082 444.549C970.222 194.459 758.116 0 500.592 0C242.962 0 30.7854 194.64 3.06608 444.88C1.791 456.391 10.9907 466.215 22.572 466.211L978.591 465.892C990.172 465.888 999.365 456.059 998.082 444.549Z" fill="#FF4C41"/>
</g>
<path d="M500.592 10C752.965 10 960.841 200.572 988.144 445.656C988.735 450.964 984.492 455.89 978.587 455.892L22.5687 456.211C16.6636 456.213 12.4173 451.29 13.0053 445.981C40.1698 200.75 248.115 10 500.592 10Z" stroke="#252525" stroke-width="20"/>
<circle cx="500.592" cy="499.257" r="183.55" fill="#252525"/>
<circle cx="500.592" cy="499.257" r="116.805" fill="#F8F8F8"/>
<g filter="url(#filter3_d_1_71)">
<circle cx="500.592" cy="499.257" r="83.432" fill="#F8F8F8"/>
<circle cx="500.592" cy="499.257" r="73.432" stroke="#252525" stroke-width="20"/>
</g>
<path d="M181.545 258.645C181.545 258.645 286.22 173.407 341.641 110.084C354.202 95.7334 368.132 83.4439 372.837 72.6769C381.395 53.0928 331.376 69.1419 309.415 77.969C226.405 111.334 144.449 183.096 120.467 260.395C113.924 281.482 115.203 299.655 132.004 298.253C143.502 297.293 181.545 258.645 181.545 258.645Z" fill="white" fill-opacity="0.8"/>
<path d="M78.8279 331.817C75.2386 342.816 75.8133 357.093 86.9252 360.314C97.8729 363.487 109.126 341.366 109.126 341.366C109.126 341.366 118.604 317.243 108.368 312.676C100.598 309.209 83.2045 318.407 78.8279 331.817Z" fill="white" fill-opacity="0.8"/>
<path d="M61.2748 384.024C61.5203 388.741 62.7239 392.562 66.9273 394.716C74.0659 398.375 80.4633 387.042 80.1818 379.025C80.031 374.732 79.3555 371.414 75.8671 368.907C69.204 364.119 60.8482 375.83 61.2748 384.024Z" fill="white" fill-opacity="0.8"/>
</g>
<defs>
<filter id="filter0_d_1_71" x="1.78613" y="0" width="1021.42" height="1049.52" filterUnits="userSpaceOnUse" color-interpolation-filters="sRGB">
<feFlood flood-opacity="0" result="BackgroundImageFix"/>
<feColorMatrix in="SourceAlpha" type="matrix" values="0 0 0 0 0 0 0 0 0 0 0 0 0 0 0 0 0 0 127 0" result="hardAlpha"/>
<feOffset dx="25" dy="50"/>
<feColorMatrix type="matrix" values="0 0 0 0 0 0 0 0 0 0 0 0 0 0 0 0 0 0 0.25 0"/>
<feBlend mode="normal" in2="BackgroundImageFix" result="effect1_dropShadow_1_71"/>
<feBlend mode="normal" in="SourceGraphic" in2="effect1_dropShadow_1_71" result="shape"/>
</filter>
<filter id="filter1_i_1_71" x="1.78613" y="533.305" width="995.254" height="466.211" filterUnits="userSpaceOnUse" color-interpolation-filters="sRGB">
<feFlood flood-opacity="0" result="BackgroundImageFix"/>
<feBlend mode="normal" in="SourceGraphic" in2="BackgroundImageFix" result="shape"/>
<feColorMatrix in="SourceAlpha" type="matrix" values="0 0 0 0 0 0 0 0 0 0 0 0 0 0 0 0 0 0 127 0" result="hardAlpha"/>
<feOffset dx="-150" dy="-50"/>
<feComposite in2="hardAlpha" operator="arithmetic" k2="-1" k3="1"/>
<feColorMatrix type="matrix" values="0 0 0 0 0 0 0 0 0 0 0 0 0 0 0 0 0 0 0.25 0"/>
<feBlend mode="normal" in2="shape" result="effect1_innerShadow_1_71"/>
</filter>
<filter id="filter2_i_1_71" x="2.94775" y="0" width="995.254" height="466.211" filterUnits="userSpaceOnUse" color-interpolation-filters="sRGB">
<feFlood flood-opacity="0" result="BackgroundImageFix"/>
<feBlend mode="normal" in="SourceGraphic" in2="BackgroundImageFix" result="shape"/>
<feColorMatrix in="SourceAlpha" type="matrix" values="0 0 0 0 0 0 0 0 0 0 0 0 0 0 0 0 0 0 127 0" result="hardAlpha"/>
<feOffset dx="-150" dy="-25"/>
<feComposite in2="hardAlpha" operator="arithmetic" k2="-1" k3="1"/>
<feColorMatrix type="matrix" values="0 0 0 0 0 0 0 0 0 0 0 0 0 0 0 0 0 0 0.25 0"/>
<feBlend mode="normal" in2="shape" result="effect1_innerShadow_1_71"/>
</filter>
<filter id="filter3_d_1_71" x="417.16" y="415.825" width="176.864" height="176.864" filterUnits="userSpaceOnUse" color-interpolation-filters="sRGB">
<feFlood flood-opacity="0" result="BackgroundImageFix"/>
<feColorMatrix in="SourceAlpha" type="matrix" values="0 0 0 0 0 0 0 0 0 0 0 0 0 0 0 0 0 0 127 0" result="hardAlpha"/>
<feOffset dx="10" dy="10"/>
<feColorMatrix type="matrix" values="0 0 0 0 0 0 0 0 0 0 0 0 0 0 0 0 0 0 0.25 0"/>
<feBlend mode="normal" in2="BackgroundImageFix" result="effect1_dropShadow_1_71"/>
<feBlend mode="normal" in="SourceGraphic" in2="effect1_dropShadow_1_71" result="shape"/>
</filter>
</defs>
</svg>
